ffmpeg started on 2025-06-04 at 21:00:46
Report written to "D:\Convert\FFMetrics\reports\ssim_report-6.txt"
Log level: 32
Command line:
ffmpeg -hide_banner -nostdin -i "G:\\\xc0\xed\xe8\xec\xe5\\\xce\xed\xe3\xee\xe8\xed\xe3\xe8\\!_36_\xce\xf1\xe5\xed\xfc_2024\\DreamCast\\\xc4\xe5\xf2\xf1\xea\xe0\xff \xc4\xe5\xeb\xe8\xea\xee\\[DC] Delicos Nursery - 12_Telegram_HEVC.mkv" -i "G:\\\xc0\xed\xe8\xec\xe5\\\xce\xed\xe3\xee\xe8\xed\xe3\xe8\\!_36_\xce\xf1\xe5\xed\xfc_2024\\DreamCast\\\xc4\xe5\xf2\xf1\xea\xe0\xff \xc4\xe5\xeb\xe8\xea\xee\\[DC] Delicos Nursery - 12_Telegram.mp4" -lavfi "[0:v]settb=AVTB,setpts=PTS-STARTPTS,format=pix_fmts=yuv420p10,fps=24000/1001,scale=1920:1080:flags=bicubic[main];[1:v]settb=AVTB,setpts=PTS-STARTPTS,format=pix_fmts=yuv420p,fps=24000/1001,scale=1920:1080:flags=bicubic[ref];[main][ref]ssim=eof_action=endall:stats_file='D\\:/Convert/FFMetrics/logs/ssim_logfile-6.txt'" -f null -
Input #0, matroska,webm, from 'G:\Аниме\Онгоинги\!_36_Осень_2024\DreamCast\Детская Делико\[DC] Delicos Nursery - 12_Telegram_HEVC.mkv':
  Metadata:
    COMPATIBLE_BRANDS: isomiso2avc1mp41
    MAJOR_BRAND     : isom
    MINOR_VERSION   : 512
    ENCODER         : Lavf61.7.100
  Duration: 00:23:46.69, start: -0.021000, bitrate: 1617 kb/s
  Stream #0:0: Video: hevc (Main 10), yuv420p10le(tv, bt709, progressive), 1920x1080 [SAR 1:1 DAR 16:9], 23.98 fps, 23.98 tbr, 1k tbn (default)
      Metadata:
        HANDLER_NAME    : VideoHandler
        VENDOR_ID       : [0][0][0][0]
        ENCODER         : Lavc61.19.100 libx265
        BPS             : 1419734
        DURATION        : 00:23:46.591708333
        NUMBER_OF_FRAMES: 34204
        NUMBER_OF_BYTES : 253172489
        _STATISTICS_WRITING_APP: mkvpropedit v66.0.0 ('Josie') 64-bit
        _STATISTICS_WRITING_DATE_UTC: 2025-05-30 14:01:20
        _STATISTICS_TAGS: BPS DURATION NUMBER_OF_FRAMES NUMBER_OF_BYTES
  Stream #0:1: Audio: aac (LC), 48000 Hz, stereo, fltp (default)
      Metadata:
        HANDLER_NAME    : SoundHandler
        VENDOR_ID       : [0][0][0][0]
        ENCODER         : Lavc61.19.100 aac
        BPS             : 193699
        DURATION        : 00:23:46.688000000
        NUMBER_OF_FRAMES: 66877
        NUMBER_OF_BYTES : 34543522
        _STATISTICS_WRITING_APP: mkvpropedit v66.0.0 ('Josie') 64-bit
        _STATISTICS_WRITING_DATE_UTC: 2025-05-30 14:01:20
        _STATISTICS_TAGS: BPS DURATION NUMBER_OF_FRAMES NUMBER_OF_BYTES
Input #1, mov,mp4,m4a,3gp,3g2,mj2, from 'G:\Аниме\Онгоинги\!_36_Осень_2024\DreamCast\Детская Делико\[DC] Delicos Nursery - 12_Telegram.mp4':
  Metadata:
    major_brand     : isom
    minor_version   : 512
    compatible_brands: isomiso2avc1mp41
    encoder         : Lavf61.1.100
  Duration: 00:23:46.66, start: 0.000000, bitrate: 3775 kb/s
  Stream #1:0[0x1](und): Video: h264 (High) (avc1 / 0x31637661), yuv420p(tv, bt709, progressive), 1920x1080 [SAR 1:1 DAR 16:9], 3627 kb/s, 23.98 fps, 23.98 tbr, 24k tbn (default)
      Metadata:
        handler_name    : VideoHandler
        vendor_id       : [0][0][0][0]
        encoder         : Lavc61.3.100 h264_qsv
  Stream #1:1[0x2](und): Audio: aac (HE-AACv2) (mp4a / 0x6134706D), 48000 Hz, stereo, fltp, 144 kb/s (default)
      Metadata:
        handler_name    : SoundHandler
        vendor_id       : [0][0][0][0]
Stream mapping:
  Stream #0:0 (hevc) -> settb:default
  Stream #1:0 (h264) -> settb:default
  ssim:default -> Stream #0:0 (wrapped_avframe)
  Stream #0:1 -> #0:1 (aac (native) -> pcm_s16le (native))
Output #0, null, to 'pipe:':
  Metadata:
    COMPATIBLE_BRANDS: isomiso2avc1mp41
    MAJOR_BRAND     : isom
    MINOR_VERSION   : 512
    encoder         : Lavf61.7.100
  Stream #0:0: Video: wrapped_avframe, yuv420p10le(tv, bt709, progressive), 1920x1080 [SAR 1:1 DAR 16:9], q=2-31, 200 kb/s, 23.98 fps, 23.98 tbn
      Metadata:
        encoder         : Lavc61.19.100 wrapped_avframe
  Stream #0:1: Audio: pcm_s16le, 48000 Hz, stereo, s16, 1536 kb/s (default)
      Metadata:
        HANDLER_NAME    : SoundHandler
        VENDOR_ID       : [0][0][0][0]
        _STATISTICS_TAGS: BPS DURATION NUMBER_OF_FRAMES NUMBER_OF_BYTES
        BPS             : 193699
        DURATION        : 00:23:46.688000000
        NUMBER_OF_FRAMES: 66877
        NUMBER_OF_BYTES : 34543522
        _STATISTICS_WRITING_APP: mkvpropedit v66.0.0 ('Josie') 64-bit
        _STATISTICS_WRITING_DATE_UTC: 2025-05-30 14:01:20
        encoder         : Lavc61.19.100 pcm_s16le
frame=  155 fps=0.0 q=-0.0 size=N/A time=00:00:06.46 bitrate=N/A speed=12.7x    frame=  363 fps=351 q=-0.0 size=N/A time=00:00:15.14 bitrate=N/A speed=14.6x    frame=  603 fps=391 q=-0.0 size=N/A time=00:00:25.15 bitrate=N/A speed=16.3x    frame=  839 fps=407 q=-0.0 size=N/A time=00:00:34.99 bitrate=N/A speed=  17x    frame= 1058 fps=409 q=-0.0 size=N/A time=00:00:44.12 bitrate=N/A speed=17.1x    frame= 1221 fps=395 q=-0.0 size=N/A time=00:00:50.92 bitrate=N/A speed=16.5x    frame= 1416 fps=391 q=-0.0 size=N/A time=00:00:59.05 bitrate=N/A speed=16.3x    frame= 1615 fps=391 q=-0.0 size=N/A time=00:01:07.35 bitrate=N/A speed=16.3x    frame= 1840 fps=396 q=-0.0 size=N/A time=00:01:16.74 bitrate=N/A speed=16.5x    frame= 2008 fps=390 q=-0.0 size=N/A time=00:01:23.75 bitrate=N/A speed=16.3x    frame= 2193 fps=387 q=-0.0 size=N/A time=00:01:31.46 bitrate=N/A speed=16.1x    frame= 2362 fps=382 q=-0.0 size=N/A time=00:01:38.51 bitrate=N/A speed=15.9x    frame= 2567 fps=383 q=-0.0 size=N/A time=00:01:47.06 bitrate=N/A speed=  16x    frame= 2744 fps=380 q=-0.0 size=N/A time=00:01:54.44 bitrate=N/A speed=15.9x    frame= 2956 fps=382 q=-0.0 size=N/A time=00:02:03.28 bitrate=N/A speed=15.9x    frame= 3163 fps=384 q=-0.0 size=N/A time=00:02:11.92 bitrate=N/A speed=  16x    frame= 3398 fps=387 q=-0.0 size=N/A time=00:02:21.72 bitrate=N/A speed=16.2x    frame= 3650 fps=393 q=-0.0 size=N/A time=00:02:32.23 bitrate=N/A speed=16.4x    frame= 3872 fps=395 q=-0.0 size=N/A time=00:02:41.49 bitrate=N/A speed=16.5x    frame= 4098 fps=397 q=-0.0 size=N/A time=00:02:50.92 bitrate=N/A speed=16.6x    frame= 4325 fps=400 q=-0.0 size=N/A time=00:03:00.38 bitrate=N/A speed=16.7x    frame= 4566 fps=402 q=-0.0 size=N/A time=00:03:10.44 bitrate=N/A speed=16.8x    frame= 4824 fps=407 q=-0.0 size=N/A time=00:03:21.20 bitrate=N/A speed=  17x    frame= 5070 fps=410 q=-0.0 size=N/A time=00:03:31.46 bitrate=N/A speed=17.1x    frame= 5310 fps=412 q=-0.0 size=N/A time=00:03:41.47 bitrate=N/A speed=17.2x    frame= 5510 fps=411 q=-0.0 size=N/A time=00:03:49.81 bitrate=N/A speed=17.1x    frame= 5688 fps=409 q=-0.0 size=N/A time=00:03:57.23 bitrate=N/A speed=  17x    frame= 5902 fps=409 q=-0.0 size=N/A time=00:04:06.16 bitrate=N/A speed=17.1x    frame= 6146 fps=411 q=-0.0 size=N/A time=00:04:16.33 bitrate=N/A speed=17.1x    frame= 6410 fps=414 q=-0.0 size=N/A time=00:04:27.35 bitrate=N/A speed=17.3x    frame= 6686 fps=418 q=-0.0 size=N/A time=00:04:38.86 bitrate=N/A speed=17.4x    frame= 6886 fps=417 q=-0.0 size=N/A time=00:04:47.20 bitrate=N/A speed=17.4x    frame= 7142 fps=420 q=-0.0 size=N/A time=00:04:57.88 bitrate=N/A speed=17.5x    frame= 7357 fps=419 q=-0.0 size=N/A time=00:05:06.88 bitrate=N/A speed=17.5x    frame= 7559 fps=419 q=-0.0 size=N/A time=00:05:15.27 bitrate=N/A speed=17.5x    frame= 7762 fps=418 q=-0.0 size=N/A time=00:05:23.74 bitrate=N/A speed=17.4x    frame= 8015 fps=420 q=-0.0 size=N/A time=00:05:34.29 bitrate=N/A speed=17.5x    frame= 8221 fps=419 q=-0.0 size=N/A time=00:05:42.88 bitrate=N/A speed=17.5x    frame= 8406 fps=418 q=-0.0 size=N/A time=00:05:50.60 bitrate=N/A speed=17.4x    frame= 8638 fps=419 q=-0.0 size=N/A time=00:06:00.27 bitrate=N/A speed=17.5x    frame= 8830 fps=418 q=-0.0 size=N/A time=00:06:08.28 bitrate=N/A speed=17.4x    frame= 8999 fps=415 q=-0.0 size=N/A time=00:06:15.33 bitrate=N/A speed=17.3x    frame= 9207 fps=415 q=-0.0 size=N/A time=00:06:24.00 bitrate=N/A speed=17.3x    frame= 9376 fps=413 q=-0.0 size=N/A time=00:06:31.05 bitrate=N/A speed=17.2x    frame= 9527 fps=411 q=-0.0 size=N/A time=00:06:37.35 bitrate=N/A speed=17.1x    frame= 9697 fps=409 q=-0.0 size=N/A time=00:06:44.44 bitrate=N/A speed=  17x    frame= 9862 fps=407 q=-0.0 size=N/A time=00:06:51.32 bitrate=N/A speed=  17x    frame=10037 fps=405 q=-0.0 size=N/A time=00:06:58.62 bitrate=N/A speed=16.9x    frame=10190 fps=403 q=-0.0 size=N/A time=00:07:05.00 bitrate=N/A speed=16.8x    frame=10394 fps=403 q=-0.0 size=N/A time=00:07:13.51 bitrate=N/A speed=16.8x    frame=10608 fps=403 q=-0.0 size=N/A time=00:07:22.44 bitrate=N/A speed=16.8x    frame=10825 fps=404 q=-0.0 size=N/A time=00:07:31.49 bitrate=N/A speed=16.8x    frame=11063 fps=405 q=-0.0 size=N/A time=00:07:41.41 bitrate=N/A speed=16.9x    frame=11322 fps=407 q=-0.0 size=N/A time=00:07:52.22 bitrate=N/A speed=  17x    frame=11551 fps=407 q=-0.0 size=N/A time=00:08:01.77 bitrate=N/A speed=  17x    frame=11753 fps=407 q=-0.0 size=N/A time=00:08:10.19 bitrate=N/A speed=  17x    frame=12009 fps=408 q=-0.0 size=N/A time=00:08:20.87 bitrate=N/A speed=  17x    frame=12261 fps=410 q=-0.0 size=N/A time=00:08:31.38 bitrate=N/A speed=17.1x    frame=12452 fps=409 q=-0.0 size=N/A time=00:08:39.35 bitrate=N/A speed=17.1x    frame=12634 fps=408 q=-0.0 size=N/A time=00:08:46.94 bitrate=N/A speed=  17x    frame=12876 fps=409 q=-0.0 size=N/A time=00:08:57.03 bitrate=N/A speed=17.1x    frame=13123 fps=410 q=-0.0 size=N/A time=00:09:07.33 bitrate=N/A speed=17.1x    frame=13372 fps=411 q=-0.0 size=N/A time=00:09:17.72 bitrate=N/A speed=17.2x    frame=13606 fps=412 q=-0.0 size=N/A time=00:09:27.48 bitrate=N/A speed=17.2x    frame=13838 fps=413 q=-0.0 size=N/A time=00:09:37.15 bitrate=N/A speed=17.2x    frame=14042 fps=412 q=-0.0 size=N/A time=00:09:45.66 bitrate=N/A speed=17.2x    frame=14252 fps=412 q=-0.0 size=N/A time=00:09:54.42 bitrate=N/A speed=17.2x    frame=14500 fps=413 q=-0.0 size=N/A time=00:10:04.77 bitrate=N/A speed=17.2x    frame=14761 fps=415 q=-0.0 size=N/A time=00:10:15.65 bitrate=N/A speed=17.3x    frame=15004 fps=416 q=-0.0 size=N/A time=00:10:25.79 bitrate=N/A speed=17.3x    frame=15236 fps=416 q=-0.0 size=N/A time=00:10:35.46 bitrate=N/A speed=17.3x    frame=15434 fps=416 q=-0.0 size=N/A time=00:10:43.72 bitrate=N/A speed=17.3x    frame=15684 fps=416 q=-0.0 size=N/A time=00:10:54.15 bitrate=N/A speed=17.4x    frame=15903 fps=417 q=-0.0 size=N/A time=00:11:03.28 bitrate=N/A speed=17.4x    frame=16135 fps=417 q=-0.0 size=N/A time=00:11:12.96 bitrate=N/A speed=17.4x    frame=16366 fps=417 q=-0.0 size=N/A time=00:11:22.59 bitrate=N/A speed=17.4x    frame=16601 fps=418 q=-0.0 size=N/A time=00:11:32.40 bitrate=N/A speed=17.4x    frame=16838 fps=419 q=-0.0 size=N/A time=00:11:42.28 bitrate=N/A speed=17.5x    frame=17066 fps=419 q=-0.0 size=N/A time=00:11:51.79 bitrate=N/A speed=17.5x    frame=17313 fps=420 q=-0.0 size=N/A time=00:12:02.09 bitrate=N/A speed=17.5x    frame=17572 fps=421 q=-0.0 size=N/A time=00:12:12.89 bitrate=N/A speed=17.5x    frame=17806 fps=421 q=-0.0 size=N/A time=00:12:22.65 bitrate=N/A speed=17.6x    frame=18057 fps=422 q=-0.0 size=N/A time=00:12:33.12 bitrate=N/A speed=17.6x    frame=18300 fps=422 q=-0.0 size=N/A time=00:12:43.26 bitrate=N/A speed=17.6x    frame=18545 fps=423 q=-0.0 size=N/A time=00:12:53.48 bitrate=N/A speed=17.6x    frame=18780 fps=423 q=-0.0 size=N/A time=00:13:03.28 bitrate=N/A speed=17.7x    frame=19000 fps=423 q=-0.0 size=N/A time=00:13:12.45 bitrate=N/A speed=17.7x    frame=19254 fps=424 q=-0.0 size=N/A time=00:13:23.05 bitrate=N/A speed=17.7x    frame=19481 fps=424 q=-0.0 size=N/A time=00:13:32.52 bitrate=N/A speed=17.7x    frame=19707 fps=424 q=-0.0 size=N/A time=00:13:41.94 bitrate=N/A speed=17.7x    frame=19883 fps=424 q=-0.0 size=N/A time=00:13:49.28 bitrate=N/A speed=17.7x    frame=20084 fps=423 q=-0.0 size=N/A time=00:13:57.67 bitrate=N/A speed=17.7x    frame=20299 fps=423 q=-0.0 size=N/A time=00:14:06.63 bitrate=N/A speed=17.7x    frame=20508 fps=423 q=-0.0 size=N/A time=00:14:15.35 bitrate=N/A speed=17.6x    frame=20754 fps=424 q=-0.0 size=N/A time=00:14:25.61 bitrate=N/A speed=17.7x    frame=20980 fps=424 q=-0.0 size=N/A time=00:14:35.04 bitrate=N/A speed=17.7x    frame=21220 fps=424 q=-0.0 size=N/A time=00:14:45.05 bitrate=N/A speed=17.7x    frame=21468 fps=425 q=-0.0 size=N/A time=00:14:55.39 bitrate=N/A speed=17.7x    frame=21714 fps=425 q=-0.0 size=N/A time=00:15:05.65 bitrate=N/A speed=17.7x    frame=21967 fps=426 q=-0.0 size=N/A time=00:15:16.20 bitrate=N/A speed=17.8x    frame=22231 fps=427 q=-0.0 size=N/A time=00:15:27.21 bitrate=N/A speed=17.8x    frame=22508 fps=428 q=-0.0 size=N/A time=00:15:38.77 bitrate=N/A speed=17.8x    frame=22762 fps=428 q=-0.0 size=N/A time=00:15:49.36 bitrate=N/A speed=17.9x    frame=23055 fps=430 q=-0.0 size=N/A time=00:16:01.58 bitrate=N/A speed=17.9x    frame=23351 fps=431 q=-0.0 size=N/A time=00:16:13.93 bitrate=N/A speed=  18x    frame=23631 fps=432 q=-0.0 size=N/A time=00:16:25.60 bitrate=N/A speed=  18x    frame=23887 fps=433 q=-0.0 size=N/A time=00:16:36.28 bitrate=N/A speed=18.1x    frame=24136 fps=433 q=-0.0 size=N/A time=00:16:46.67 bitrate=N/A speed=18.1x    frame=24332 fps=433 q=-0.0 size=N/A time=00:16:54.84 bitrate=N/A speed=  18x    frame=24535 fps=432 q=-0.0 size=N/A time=00:17:03.31 bitrate=N/A speed=  18x    frame=24766 fps=433 q=-0.0 size=N/A time=00:17:12.94 bitrate=N/A speed=  18x    frame=25028 fps=433 q=-0.0 size=N/A time=00:17:23.87 bitrate=N/A speed=18.1x    frame=25272 fps=434 q=-0.0 size=N/A time=00:17:34.05 bitrate=N/A speed=18.1x    frame=25525 fps=434 q=-0.0 size=N/A time=00:17:44.60 bitrate=N/A speed=18.1x    frame=25779 fps=435 q=-0.0 size=N/A time=00:17:55.19 bitrate=N/A speed=18.1x    frame=26033 fps=435 q=-0.0 size=N/A time=00:18:05.79 bitrate=N/A speed=18.1x    frame=26289 fps=436 q=-0.0 size=N/A time=00:18:16.47 bitrate=N/A speed=18.2x    frame=26541 fps=436 q=-0.0 size=N/A time=00:18:26.98 bitrate=N/A speed=18.2x    frame=26763 fps=436 q=-0.0 size=N/A time=00:18:36.24 bitrate=N/A speed=18.2x    frame=26994 fps=436 q=-0.0 size=N/A time=00:18:45.87 bitrate=N/A speed=18.2x    frame=27121 fps=434 q=-0.0 size=N/A time=00:18:51.17 bitrate=N/A speed=18.1x    frame=27306 fps=434 q=-0.0 size=N/A time=00:18:58.88 bitrate=N/A speed=18.1x    frame=27544 fps=434 q=-0.0 size=N/A time=00:19:08.81 bitrate=N/A speed=18.1x    frame=27768 fps=434 q=-0.0 size=N/A time=00:19:18.15 bitrate=N/A speed=18.1x    frame=27966 fps=434 q=-0.0 size=N/A time=00:19:26.41 bitrate=N/A speed=18.1x    frame=28185 fps=434 q=-0.0 size=N/A time=00:19:35.54 bitrate=N/A speed=18.1x    frame=28421 fps=434 q=-0.0 size=N/A time=00:19:45.39 bitrate=N/A speed=18.1x    frame=28677 fps=434 q=-0.0 size=N/A time=00:19:56.06 bitrate=N/A speed=18.1x    frame=28936 fps=435 q=-0.0 size=N/A time=00:20:06.87 bitrate=N/A speed=18.1x    frame=29073 fps=434 q=-0.0 size=N/A time=00:20:12.58 bitrate=N/A speed=18.1x    frame=29236 fps=433 q=-0.0 size=N/A time=00:20:19.38 bitrate=N/A speed=  18x    frame=29432 fps=432 q=-0.0 size=N/A time=00:20:27.55 bitrate=N/A speed=  18x    frame=29637 fps=432 q=-0.0 size=N/A time=00:20:36.10 bitrate=N/A speed=  18x    frame=29872 fps=432 q=-0.0 size=N/A time=00:20:45.91 bitrate=N/A speed=  18x    frame=30115 fps=432 q=-0.0 size=N/A time=00:20:56.04 bitrate=N/A speed=  18x    frame=30377 fps=433 q=-0.0 size=N/A time=00:21:06.97 bitrate=N/A speed=18.1x    frame=30608 fps=433 q=-0.0 size=N/A time=00:21:16.60 bitrate=N/A speed=18.1x    frame=30847 fps=433 q=-0.0 size=N/A time=00:21:26.57 bitrate=N/A speed=18.1x    frame=31089 fps=434 q=-0.0 size=N/A time=00:21:36.67 bitrate=N/A speed=18.1x    frame=31342 fps=434 q=-0.0 size=N/A time=00:21:47.22 bitrate=N/A speed=18.1x    frame=31547 fps=434 q=-0.0 size=N/A time=00:21:55.77 bitrate=N/A speed=18.1x    frame=31808 fps=434 q=-0.0 size=N/A time=00:22:06.65 bitrate=N/A speed=18.1x    frame=31964 fps=433 q=-0.0 size=N/A time=00:22:13.16 bitrate=N/A speed=18.1x    frame=32127 fps=432 q=-0.0 size=N/A time=00:22:19.96 bitrate=N/A speed=  18x    frame=32273 fps=432 q=-0.0 size=N/A time=00:22:26.05 bitrate=N/A speed=  18x    frame=32418 fps=430 q=-0.0 size=N/A time=00:22:32.10 bitrate=N/A speed=  18x    frame=32576 fps=430 q=-0.0 size=N/A time=00:22:38.69 bitrate=N/A speed=17.9x    frame=32739 fps=429 q=-0.0 size=N/A time=00:22:45.48 bitrate=N/A speed=17.9x    frame=32928 fps=428 q=-0.0 size=N/A time=00:22:53.37 bitrate=N/A speed=17.9x    frame=33109 fps=428 q=-0.0 size=N/A time=00:23:00.92 bitrate=N/A speed=17.8x    frame=33293 fps=427 q=-0.0 size=N/A time=00:23:08.59 bitrate=N/A speed=17.8x    frame=33454 fps=427 q=-0.0 size=N/A time=00:23:15.31 bitrate=N/A speed=17.8x    frame=33630 fps=426 q=-0.0 size=N/A time=00:23:22.65 bitrate=N/A speed=17.8x    frame=33822 fps=426 q=-0.0 size=N/A time=00:23:30.65 bitrate=N/A speed=17.8x    frame=34052 fps=426 q=-0.0 size=N/A time=00:23:40.25 bitrate=N/A speed=17.8x    [Parsed_ssim_10 @ 000001c358643380] SSIM Y:0.992712 (21.373948) U:0.992116 (21.032436) V:0.993001 (21.549529) All:0.992661 (21.343518)
[out#0/null @ 000001c358650180] video:14697KiB audio:267508KiB subtitle:0KiB other streams:0KiB global headers:0KiB muxing overhead: unknown
frame=34204 fps=426 q=-0.0 Lsize=N/A time=00:23:46.59 bitrate=N/A speed=17.8x    
